<!DOCTYPE svg PUBLIC "-//W3C//DTD SVG 1.1//EN" "http://www.w3.org/Graphics/SVG/1.1/DTD/svg11.dtd">

<!-- Uploaded to: SVG Repo, www.svgrepo.com, Transformed by: SVG Repo Mixer Tools -->
<svg width="120px" height="120px" viewBox="0 0 1024 1024" class="icon" version="1.1" xmlns="http://www.w3.org/2000/svg" fill="#000000">

<g id="SVGRepo_bgCarrier" stroke-width="0"/>

<g id="SVGRepo_tracerCarrier" stroke-linecap="round" stroke-linejoin="round"/>

<g id="SVGRepo_iconCarrier">

<path d="M810.666667 149.333333H213.333333c-23.466667 0-42.666667 19.2-42.666666 42.666667v128c0 23.466667 19.2 42.666667 42.666666 42.666667h597.333334c23.466667 0 42.666667-19.2 42.666666-42.666667V192c0-23.466667-19.2-42.666667-42.666666-42.666667zM810.666667 405.333333H213.333333c-23.466667 0-42.666667 19.2-42.666666 42.666667v128c0 23.466667 19.2 42.666667 42.666666 42.666667h535.466667c27.733333-27.733333 104.533333-19.2 104.533333-42.666667v-128c0-23.466667-19.2-42.666667-42.666666-42.666667zM733.866667 661.333333H213.333333c-23.466667 0-42.666667 19.2-42.666666 42.666667v128c0 23.466667 19.2 42.666667 42.666666 42.666667h597.333334c23.466667 0 42.666667-19.2 42.666666-42.666667v-51.2c0-66.133333-53.333333-119.466667-119.466666-119.466667z" fill="#b79de7"/>

<path d="M981.333333 533.333333H682.666667c-23.466667 0-42.666667 19.2-42.666667 42.666667v251.733333c0 27.733333 12.8 51.2 34.133333 68.266667l157.866667 117.333333 157.866667-117.333333c21.333333-17.066667 34.133333-40.533333 34.133333-68.266667V576c0-23.466667-19.2-42.666667-42.666667-42.666667z" fill="#009688"/>

</g>

</svg>