<svg width="1347" height="1948" xmlns="http://www.w3.org/2000/svg" xmlns:xlink="http://www.w3.org/1999/xlink" overflow="hidden"><defs><filter id="fx0" x="-10%" y="-10%" width="120%" height="120%" filterUnits="userSpaceOnUse" primitiveUnits="userSpaceOnUse"><feComponentTransfer color-interpolation-filters="sRGB"><feFuncR type="discrete" tableValues="0 0"/><feFuncG type="discrete" tableValues="0 0"/><feFuncB type="discrete" tableValues="0 0"/><feFuncA type="linear" slope="0.631373" intercept="0"/></feComponentTransfer><feGaussianBlur stdDeviation="6.875 6.875"/></filter><filter id="fx1" x="-10%" y="-10%" width="120%" height="120%" filterUnits="userSpaceOnUse" primitiveUnits="userSpaceOnUse"><feComponentTransfer color-interpolation-filters="sRGB"><feFuncR type="discrete" tableValues="0 0"/><feFuncG type="discrete" tableValues="0 0"/><feFuncB type="discrete" tableValues="0 0"/><feFuncA type="linear" slope="0.631373" intercept="0"/></feComponentTransfer><feGaussianBlur stdDeviation="6.875 6.875"/></filter><clipPath id="clip2"><rect x="3340" y="742" width="1347" height="1948"/></clipPath><clipPath id="clip3"><rect x="3341" y="742" width="1344" height="1946"/></clipPath><clipPath id="clip4"><rect x="3513" y="1013" width="1125" height="1467"/></clipPath><clipPath id="clip5"><rect x="-3" y="-3" width="394" height="453"/></clipPath><clipPath id="clip6"><rect x="0" y="0" width="390" height="442"/></clipPath><clipPath id="clip7"><rect x="3513" y="1013" width="1125" height="1467"/></clipPath><clipPath id="clip8"><rect x="-3" y="-3" width="394" height="1393"/></clipPath><clipPath id="clip9"><rect x="0" y="0" width="390" height="1381"/></clipPath><clipPath id="clip10"><rect x="3513" y="1013" width="1125" height="1467"/></clipPath><linearGradient x1="3860" y1="2074" x2="3860" y2="2477" gradientUnits="userSpaceOnUse" spreadMethod="reflect" id="fill11"><stop offset="0" stop-color="#6083CB"/><stop offset="0.5" stop-color="#3E70CA"/><stop offset="1" stop-color="#2E61BA"/></linearGradient><clipPath id="clip12"><rect x="3513" y="1013" width="1125" height="1467"/></clipPath><linearGradient x1="4289" y1="1135" x2="4289" y2="2477" gradientUnits="userSpaceOnUse" spreadMethod="reflect" id="fill13"><stop offset="0" stop-color="#F18C55"/><stop offset="0.5" stop-color="#F67B28"/><stop offset="1" stop-color="#E56B17"/></linearGradient><clipPath id="clip14"><rect x="3341" y="742" width="1344" height="1946"/></clipPath><clipPath id="clip15"><rect x="3341" y="742" width="1344" height="1946"/></clipPath><clipPath id="clip16"><rect x="3341" y="742" width="1344" height="1946"/></clipPath><clipPath id="clip17"><rect x="3341" y="742" width="1344" height="1946"/></clipPath><clipPath id="clip18"><rect x="3341" y="742" width="1344" height="1946"/></clipPath><clipPath id="clip19"><rect x="3341" y="742" width="1344" height="1946"/></clipPath><clipPath id="clip20"><rect x="3341" y="742" width="1344" height="1946"/></clipPath><clipPath id="clip21"><rect x="3341" y="742" width="1344" height="1946"/></clipPath><clipPath id="clip22"><rect x="3341" y="742" width="1344" height="1946"/></clipPath><clipPath id="clip23"><rect x="3341" y="742" width="1344" height="1946"/></clipPath><clipPath id="clip24"><rect x="3341" y="742" width="1344" height="1946"/></clipPath><clipPath id="clip25"><rect x="3341" y="742" width="1344" height="1946"/></clipPath><linearGradient x1="3567.5" y1="2611" x2="3567.5" y2="2633" gradientUnits="userSpaceOnUse" spreadMethod="reflect" id="fill26"><stop offset="0" stop-color="#6083CB"/><stop offset="0.5" stop-color="#3E70CA"/><stop offset="1" stop-color="#2E61BA"/></linearGradient><clipPath id="clip27"><rect x="3341" y="742" width="1344" height="1946"/></clipPath><clipPath id="clip28"><rect x="3341" y="742" width="1344" height="1946"/></clipPath><linearGradient x1="3823" y1="2611" x2="3823" y2="2633" gradientUnits="userSpaceOnUse" spreadMethod="reflect" id="fill29"><stop offset="0" stop-color="#F18C55"/><stop offset="0.5" stop-color="#F67B28"/><stop offset="1" stop-color="#E56B17"/></linearGradient><clipPath id="clip30"><rect x="3341" y="742" width="1344" height="1946"/></clipPath></defs><g clip-path="url(#clip2)" transform="translate(-3340 -742)"><rect x="3341" y="743" width="1344" height="1945" fill="#FFFFFF"/><g clip-path="url(#clip3)"><path d="M3513.5 2232.57 4634.5 2232.57M3513.5 1988.57 4634.5 1988.57M3513.5 1745.56 4634.5 1745.56M3513.5 1501.55 4634.5 1501.55M3513.5 1257.54 4634.5 1257.54M3513.5 1013.5 4634.5 1013.5" stroke="#D9D9D9" stroke-width="3.4375" stroke-linejoin="round" stroke-miterlimit="10" fill="none"/></g><g clip-path="url(#clip4)"><g clip-path="url(#clip5)" filter="url(#fx0)" transform="translate(3665 2059)"><g clip-path="url(#clip6)"><rect x="22" y="21.8748" width="346" height="403" fill="#FF0000"/></g></g></g><g clip-path="url(#clip7)"><g clip-path="url(#clip8)" filter="url(#fx1)" transform="translate(4094 1120)"><g clip-path="url(#clip9)"><rect x="22" y="21.8751" width="346" height="1342" fill="#FF0000"/></g></g></g><g clip-path="url(#clip10)"><rect x="3687" y="2074" width="346" height="403" fill="url(#fill11)"/></g><g clip-path="url(#clip12)"><rect x="4116" y="1135" width="346" height="1342" fill="url(#fill13)"/></g><g clip-path="url(#clip14)"><path d="M3513.5 2476.5 4634.5 2476.5" stroke="#D9D9D9" stroke-width="4.58333" stroke-linejoin="round" stroke-miterlimit="10" fill="none" fill-rule="evenodd"/></g><g clip-path="url(#clip15)"><text fill="#595959" font-family="Calibri,Calibri_MSFontService,sans-serif" font-weight="400" font-size="41" transform="matrix(1 0 0 1 4063.9 2542)">1</text></g><g clip-path="url(#clip16)"><text fill="#595959" font-family="Calibri,Calibri_MSFontService,sans-serif" font-weight="400" font-size="41" transform="matrix(1 0 0 1 3454.64 2489)">0</text></g><g clip-path="url(#clip17)"><text fill="#595959" font-family="Calibri,Calibri_MSFontService,sans-serif" font-weight="400" font-size="41" transform="matrix(1 0 0 1 3371.04 2245)">10000</text></g><g clip-path="url(#clip18)"><text fill="#595959" font-family="Calibri,Calibri_MSFontService,sans-serif" font-weight="400" font-size="41" transform="matrix(1 0 0 1 3371.04 2001)">20000</text></g><g clip-path="url(#clip19)"><text fill="#595959" font-family="Calibri,Calibri_MSFontService,sans-serif" font-weight="400" font-size="41" transform="matrix(1 0 0 1 3371.04 1757)">30000</text></g><g clip-path="url(#clip20)"><text fill="#595959" font-family="Calibri,Calibri_MSFontService,sans-serif" font-weight="400" font-size="41" transform="matrix(1 0 0 1 3371.04 1513)">40000</text></g><g clip-path="url(#clip21)"><text fill="#595959" font-family="Calibri,Calibri_MSFontService,sans-serif" font-weight="400" font-size="41" transform="matrix(1 0 0 1 3371.04 1269)">50000</text></g><g clip-path="url(#clip22)"><text fill="#595959" font-family="Calibri,Calibri_MSFontService,sans-serif" font-weight="400" font-size="41" transform="matrix(1 0 0 1 3371.04 1025)">60000</text></g><g clip-path="url(#clip23)"><text fill="#595959" font-family="Calibri,Calibri_MSFontService,sans-serif" font-weight="700" font-size="73" transform="matrix(1 0 0 1 3560.68 847)">Затраты на обслуживание IT </text></g><g clip-path="url(#clip24)"><text fill="#595959" font-family="Calibri,Calibri_MSFontService,sans-serif" font-weight="700" font-size="73" transform="matrix(1 0 0 1 3651.36 936)">инфраструктуры (руб.)</text></g><g clip-path="url(#clip25)"><rect x="3556" y="2611" width="23" height="22" fill="url(#fill26)"/></g><g clip-path="url(#clip27)"><text fill="#595959" font-family="Calibri,Calibri_MSFontService,sans-serif" font-weight="400" font-size="41" transform="matrix(1 0 0 1 3588.51 2634)">Pin-Code</text></g><g clip-path="url(#clip28)"><rect x="3812" y="2611" width="22" height="22" fill="url(#fill29)"/></g><g clip-path="url(#clip30)"><text fill="#595959" font-family="Calibri,Calibri_MSFontService,sans-serif" font-weight="400" font-size="41" transform="matrix(1 0 0 1 3843.85 2634)">Штатный системный администратор</text></g><rect x="3341.5" y="743.5" width="1344" height="1945" stroke="#D9D9D9" stroke-width="3.4375" stroke-linejoin="round" stroke-miterlimit="10" fill="none"/></g></svg>