<!DOCTYPE svg PUBLIC "-//W3C//DTD SVG 1.1//EN" "http://www.w3.org/Graphics/SVG/1.1/DTD/svg11.dtd">
<!-- Uploaded to: SVG Repo, www.svgrepo.com, Transformed by: SVG Repo Mixer Tools -->
<svg height="64px" width="64px" version="1.1" id="Layer_1" xmlns="http://www.w3.org/2000/svg" xmlns:xlink="http://www.w3.org/1999/xlink" viewBox="0 0 512 512" xml:space="preserve" fill="#000000">
<g id="SVGRepo_bgCarrier" stroke-width="0"/>
<g id="SVGRepo_tracerCarrier" stroke-linecap="round" stroke-linejoin="round"/>
<g id="SVGRepo_iconCarrier"> <path style="fill:#2D2D2D;" d="M512,31.344c0-5.744-4.704-10.448-10.448-10.448H10.448C4.704,20.896,0,25.6,0,31.344v323.92h512 V31.344z M491.104,334.368H20.896V41.792h470.2v292.576H491.104z"/> <g> <path style="fill:#E8E8E8;" d="M512,397.064v-41.792H0v41.792c0,5.744,4.704,10.448,10.448,10.448h182.856h125.392h182.856 C507.296,407.512,512,402.808,512,397.064z"/> <polygon style="fill:#E8E8E8;" points="146.28,480.656 146.28,491.104 365.712,491.104 365.712,480.656 329.144,480.656 182.856,480.656 "/> </g> <polygon style="fill:#C9C9C9;" points="182.856,480.656 329.144,480.656 318.696,407.512 193.304,407.512 "/> <path style="fill:#8AD5DD;" d="M20.896,334.368h470.2V41.792h-470.2V334.368z M256,82.096c58.624,0,106.144,47.456,106.144,105.984 c0,58.536-47.52,105.984-106.144,105.984S149.856,246.616,149.856,188.08S197.376,82.096,256,82.096z"/> <polygon style="fill:#FFFFFF;" points="226.352,142.856 226.352,229.464 307.464,186.16 "/> <path style="fill:#DB2B42;" d="M256,294.072c58.624,0,106.144-47.456,106.144-105.984c0-58.536-47.52-105.984-106.144-105.984 s-106.144,47.44-106.144,105.976S197.376,294.072,256,294.072z M226.352,142.856l81.104,43.304l-81.104,43.296L226.352,142.856 L226.352,142.856z"/> </g>
</svg>