<?xml version="1.0" encoding="UTF-8"?> <svg xmlns="http://www.w3.org/2000/svg" width="15" height="15" viewBox="0 0 1280 914" fill="none"> <path d="M124.5 1.20001C121.8 1.70001 115.7 2.79999 111 3.60004C58.6 13.1 14.8 56.2 4.09995 108.6C-0.400047 131.1 -0.400046 128.9 0.899954 234.1C1.89995 312.5 1.89995 379 0.999954 549.5C0.299954 668.3 -4.64171e-05 770.4 0.299954 776.5C2.89995 829.6 27.6 870.9 71.2999 895.7C83.4 902.5 101.6 908.8 115.7 911C123 912.1 899.5 914.3 1066.5 913.7C1163.4 913.4 1159.6 913.6 1181.5 907.5C1192.6 904.4 1214.2 893.8 1223.5 886.8C1239.6 874.8 1253.9 858 1263.3 840C1270.6 826 1274.4 814.4 1277.5 796.7L1280 782L1279.8 446.8L1279.5 111.5L1276.2 100.5C1272.3 87.3 1262 66.1 1254.8 56.5C1248.1 47.5 1234.5 33.9 1225.5 27.2C1216.4 20.4 1194.8 9.70001 1183.9 6.60004C1179.1 5.20001 1169.1 3.20001 1161.7 2.10004L1148.2 0L638.8 0.100037C335.5 0.200012 127.5 0.600037 124.5 1.20001ZM1148.6 72.1C1149 72.8 1049.8 172.7 903.4 319.1C710.3 512.2 656.4 565.6 652.6 567.5C645.9 570.9 639 570.8 632.4 567.5C628.6 565.5 570.6 508.2 381.1 319.1C227.3 165.7 135 72.9 135.4 72.2C136.4 70.5 1147.6 70.5 1148.6 72.1ZM1211.8 450.6L1211.5 792.5L1209.3 800.1C1204 818.8 1194.2 831.5 1179.9 838.4C1175.7 840.4 1171.2 842 1169.8 842C1167.9 842 1131.1 805.7 995.2 669.6C900.5 574.8 823 496.6 823 495.8C823 493.9 1210.3 106.9 1211.2 107.8C1211.7 108.3 1211.9 262.5 1211.8 450.6ZM268.5 301L459.5 492L284.4 667.1L109.2 842.3L103.4 839.6C91.7 834.2 84.2 825.7 79.2 811.9L76.5 804.5L76.2 457.2C76.1 266.3 76.2999 110 76.7 110C77.2 110 163.5 196 268.5 301ZM569.4 601.1C610.6 642.6 631.2 662.6 633.7 663.6C638.4 665.6 646.7 665.6 651.6 663.5C654.4 662.4 672.2 645.3 714.5 603C747 570.5 774 544 774.5 544C776 544 1075 843.3 1075 844.7C1075 845.7 987.3 846 638.5 846C290.2 846 202 845.7 202 844.8C202 842.9 505.2 540 507.1 540C508 540 536 567.5 569.4 601.1Z" fill="#27A2DB"></path> </svg> 