<svg width="224" height="52" viewBox="0 0 224 52" fill="none" xmlns="http://www.w3.org/2000/svg">
<path d="M105.404 32.2827L108.551 23.8611H130.851L127.636 32.2827H105.404Z" fill="#105FAD"/>
<path d="M82.4347 0.133674L79.2203 9.22364H46.4741C41.9874 9.22364 37.8356 10.3599 33.8846 12.6992C30.0006 14.9717 26.9872 17.9794 24.9112 21.6555H74.7336L71.5193 30.6118H21.8308C21.6969 34.6221 22.9022 37.6966 25.4469 39.8354C27.7907 41.9074 30.9381 42.9768 34.9561 42.9768H67.0326L63.8182 51.9331H28.9292C21.2281 51.9331 14.7324 50.5963 9.44216 47.856C3.14739 44.5809 0 39.9023 0 33.8868C0 31.6812 0.468763 29.275 1.40628 26.6684C5.29029 15.7069 14.1297 8.02056 27.9916 3.54241C35.157 1.20309 41.7865 0 47.8804 0H82.4347V0.133674Z" fill="#105FAD"/>
<path d="M84.1757 42.9101L119.4 0.133789H84.5775L81.3631 9.09007H98.0376L69.2424 42.9101L66.095 52H78.4836H101.654H104.198L107.547 42.9101H84.1757Z" fill="#105FAD"/>
<path d="M162.793 0.668457L144.512 51.9332L129.11 52L147.324 0.735289L162.793 0.668457Z" fill="#105FAD"/>
<path d="M163.53 51.9331L147.391 52L165.606 0.735229H197.95C204.044 0.735229 209.468 1.60413 214.29 3.34192C220.786 5.68124 224 9.15682 224 13.8355C224 15.1722 223.732 16.5758 223.196 18.0463C220.585 25.5989 213.352 30.946 201.567 34.0874C195.339 35.8252 189.647 36.6941 184.557 36.6941H169.021L163.53 51.9331ZM172.169 27.8046H184.624C186.767 27.8046 189.178 27.4036 191.723 26.6015C196.41 25.0643 199.357 22.5912 200.629 19.1157C201.031 18.1131 201.165 17.2442 201.165 16.4421C201.165 14.1697 199.959 12.4319 197.616 11.2956C195.674 10.2262 193.33 9.69152 190.517 9.69152H178.597L172.169 27.8046Z" fill="#105FAD"/>
</svg>
