<svg id="Слой_1" data-name="Слой 1" xmlns="http://www.w3.org/2000/svg" viewBox="0 0 925 246"><defs><style>.cls-1{fill:#9cc716;}.cls-2{fill:#e51473;}.cls-3{fill:#00a0e8;}.cls-4{fill:#f9be00;}.cls-5{fill:#717171;}</style></defs><title>Logo-ezviz</title><path class="cls-1" d="M261.51,54.38C258.22,34,233.4,21.79,203.86,27.69,186.25,31,169.16,42,158.13,54.51A67.55,67.55,0,0,1,216.87,102C252.39,95.16,264.63,77.24,261.51,54.38Z"/><path class="cls-1" d="M188.18,104.65l1.9,0a41.45,41.45,0,0,0-37.71-24.38,41.92,41.92,0,0,0-6.58.57,19.84,19.84,0,0,0,.21,2.8C149,99.26,166.29,104.65,188.18,104.65Z"/><path class="cls-1" d="M152.37,75.46a46.26,46.26,0,0,1,42.85,29c5.33-.25,10.85-.75,16.46-1.48l.45-.08a62.72,62.72,0,0,0-57.74-43.78c-4.16,5.62-7,11.39-8.12,16.79A45.37,45.37,0,0,1,152.37,75.46Z"/><path class="cls-2" d="M116.55,138.68c-.62,0-1.27,0-1.9,0a41.46,41.46,0,0,0,37.72,24.37,40.73,40.73,0,0,0,6.57-.57,18.32,18.32,0,0,0-.21-2.79C155.71,144.08,138.44,138.68,116.55,138.68Z"/><path class="cls-2" d="M152.37,167.88a46.27,46.27,0,0,1-42.86-29c-5.33.25-10.85.76-16.46,1.48l-.45.08a62.71,62.71,0,0,0,57.74,43.78c4.17-5.62,7-11.39,8.13-16.78A47.34,47.34,0,0,1,152.37,167.88Z"/><path class="cls-2" d="M87.86,141.29C52.34,148.18,40.11,166.1,43.22,189c3.29,20.35,28.11,32.6,57.65,26.7,17.61-3.34,34.7-14.32,45.73-26.82A67.58,67.58,0,0,1,87.86,141.29Z"/><path class="cls-3" d="M134.89,84.16a41.43,41.43,0,0,0-23.95,37.51,41.85,41.85,0,0,0,.58,6.66,21.56,21.56,0,0,0,11.37-6.58C129.43,114.86,133.51,100.11,134.89,84.16Z"/><path class="cls-3" d="M106.16,121.67a46.26,46.26,0,0,1,29.09-42.89A137.6,137.6,0,0,0,135,61.52a62.72,62.72,0,0,0-45.3,60.15c0,.25,0,.49,0,.74,5.51,3.84,11.34,6.18,17,6.34A46,46,0,0,1,106.16,121.67Z"/><path class="cls-3" d="M134.54,56.65c-1.24-10.27-3.78-19.34-7.72-25.12-6.36-9.32-14.73-14.19-24-14.19-9.82,0-20.64,5.49-31.16,17-20.41,22.38-11.08,52.25,2,71.46A69.2,69.2,0,0,0,85,118.72,67.55,67.55,0,0,1,134.54,56.65Z"/><path class="cls-4" d="M170.2,186.68C171.43,197,174,206,177.91,211.81c6.37,9.31,14.73,14.19,24,14.19,9.82,0,20.64-5.49,31.16-17,20.41-22.38,11.08-52.26-2-71.46a69.23,69.23,0,0,0-11.32-12.93A67.55,67.55,0,0,1,170.2,186.68Z"/><path class="cls-4" d="M169.84,159.18A41,41,0,0,0,193.21,115a21.56,21.56,0,0,0-11.37,6.58C175.3,128.48,171.22,143.23,169.84,159.18Z"/><path class="cls-4" d="M198.58,121.67a46.26,46.26,0,0,1-29.1,42.88,137.76,137.76,0,0,0,.23,17.27A62.73,62.73,0,0,0,215,121.67c0-.25,0-.5,0-.75-5.51-3.83-11.34-6.17-17-6.33A47.18,47.18,0,0,1,198.58,121.67Z"/><path class="cls-5" d="M436.64,89.37h77.89a1,1,0,0,1,.74,1.73s-50.59,48-77.61,75c-4.82,4.81-3.36,13,3.44,13l108.26,0V165.21H471.3a1,1,0,0,1-.75-1.73l77.75-75c4.78-4.81,3.35-13-3.43-13H436.64Z"/><path class="cls-5" d="M733.75,89.37h77.89a1,1,0,0,1,.75,1.73s-50.59,48-77.61,75c-4.82,4.81-3.37,13,3.44,13l108.26,0V165.21H768.42a1,1,0,0,1-.75-1.73l77.75-75c4.78-4.81,3.34-13-3.44-13H733.75Z"/><polygon class="cls-5" points="700.87 75.5 696.48 75.5 696.48 179.07 700.87 179.07 715.14 179.07 718.29 179.07 718.29 75.5 715.14 75.5 700.87 75.5"/><rect class="cls-5" x="341.49" y="119.94" width="82.1" height="13.38"/><path class="cls-5" d="M331.83,106.73c0-9.75,6.34-17.37,16.84-17.37h76.46V75.51H339.68c-25,0-34.85,17.49-34.85,33.69v36.2c0,16.19,9.82,33.69,34.85,33.69h85.45V165.25H348.67c-10.5,0-16.84-7.64-16.84-17.38Z"/><path class="cls-5" d="M664,75.51l-41.4,76.3a.71.71,0,0,1-1.24,0L580,75.51H555l55.85,99.94a7,7,0,0,0,6.16,3.62h10a7,7,0,0,0,6.15-3.62L689,75.51Z"/><path class="cls-5" d="M865.53,77.65h-3.92V89.38h-2.79V77.65h-3.9V75.51h10.61Z"/><path class="cls-5" d="M870.71,75.51l3.54,10.22h0l3.57-10.22h3.63V89.38h-2.78V85.24l.27-6.12h-.06l-3.71,10.27h-1.87l-3.7-10.23h0l.26,6.08v4.14h-2.78V75.51Z"/></svg>