<svg width="156" height="36" viewBox="0 0 156 36" fill="none" xmlns="http://www.w3.org/2000/svg">
    <path d="M151.424 23.9578H151.408C150.057 23.9609 148.966 25.0542 148.969 26.3978C148.972 27.7413 150.072 28.8254 151.424 28.8223C152.775 28.8192 153.866 27.7259 153.862 26.3823C153.856 25.045 152.769 23.9609 151.424 23.9578ZM151.424 28.5227C150.262 28.5258 149.314 27.5931 149.311 26.4379C149.308 25.2828 150.246 24.3408 151.408 24.3377H151.424C152.586 24.3377 153.53 25.2766 153.53 26.4317C153.53 27.5869 152.586 28.5227 151.424 28.5227Z" fill="#104379"/>
    <path d="M152.294 27.0032C152.238 26.5924 152.076 26.3732 151.834 26.3268V26.3083C152.151 26.2403 152.374 25.9593 152.374 25.6381C152.393 25.4188 152.3 25.2026 152.126 25.0667C151.868 24.9092 151.567 24.8381 151.262 24.8598C151.001 24.8628 150.74 24.8845 150.482 24.9246V27.6827H150.923V26.4936H151.231C151.517 26.4504 151.784 26.648 151.824 26.9322C151.828 26.9507 151.828 26.9692 151.831 26.9878C151.852 27.2318 151.915 27.4696 152.014 27.692H152.477C152.381 27.4727 152.318 27.241 152.294 27.0032ZM151.234 26.157H150.914V25.2242C151.02 25.2057 151.125 25.1995 151.234 25.1995C151.731 25.1995 151.908 25.4466 151.908 25.6937C151.908 26.0334 151.598 26.1662 151.234 26.1662" fill="#104379"/>
    <path d="M98.7722 9.5156C94.084 9.5156 90.3465 12.3324 89.6195 16.3352C88.9639 20.0755 91.7166 23.0622 95.8766 23.0622H102.771C105.405 23.0622 106.772 24.1617 106.443 25.9994C106.173 27.5221 104.548 28.6217 102.6 28.6217H88.2276C88.7433 27.7661 89.0975 26.8241 89.2746 25.8419C90.0171 21.6754 87.5224 19.0223 82.9056 19.0223H75.325C73.6318 19.0223 72.3952 17.7622 72.6562 16.3136C73.0197 14.7971 74.3743 13.7223 75.9432 13.7037H86.4008C90.0047 13.7037 90.6137 9.49707 90.6137 9.49707H74.8372C70.1521 9.49707 66.4115 12.3139 65.6969 16.3167C65.029 20.0693 67.7847 23.0436 71.9447 23.0436H78.8388C81.4703 23.0436 82.8342 24.1432 82.5142 25.9809C82.2439 27.5036 80.6128 28.6031 78.671 28.6031H65.6472L60.7726 9.5156H55.0467C55.0467 9.5156 52.9341 13.0459 51.6292 15.143C48.5379 20.0817 52.089 23.3865 52.1387 23.4452H46.8509L43.2874 29.5081L40.1464 23.4235C43.9212 22.6514 46.5899 20.0632 47.2051 16.6039C47.9041 12.7154 45.4466 9.51251 41.706 9.51251H5.53636C1.94177 9.5156 1.33594 13.7006 1.33594 13.7006H11.9457L8.5562 32.8067C8.5562 32.8067 13.8689 33.3132 14.9438 27.2472C15.6864 22.9819 17.3392 13.713 17.3392 13.713H36.4462C39.205 13.713 40.7212 14.8743 40.3825 16.7769C40.0594 18.6208 37.8691 20.128 35.4271 20.128H27.0573C23.1707 20.1311 22.0585 24.0258 22.0585 24.0258L20.4988 32.8098H25.9016L27.4892 23.8559H33.9607L38.4221 32.8098H47.1492L50.2063 27.5128H59.8188L60.8316 32.8098H104.74C108.872 32.8098 112.495 29.8046 113.197 25.8296C113.94 21.663 111.464 19.0099 106.831 19.0099H99.2631C97.5729 19.0099 96.3271 17.7498 96.5881 16.3012C96.7403 15.4272 97.4425 14.6149 98.5702 14.0836C98.9679 13.8582 99.4122 13.7284 99.872 13.7037H118.314L114.931 32.8036C114.931 32.8036 119.607 33.2515 121.073 28.2726C121.129 27.9978 121.185 27.729 121.231 27.4387L124.41 9.5156H98.7722ZM52.1512 23.4544L57.0196 15.2975L58.7532 23.4421L52.1512 23.4544Z" fill="#104379"/>
    <path d="M149.584 11.9H126.389L126.084 13.6235H149.28L149.584 11.9ZM147.758 9.51562H126.814L126.507 11.2391H147.45L147.758 9.51562ZM143.029 14.2999L142.728 16.0233H151.101L151.405 14.2999H143.029ZM145.629 21.4963H124.689L124.379 23.2197H145.322L145.629 21.4963ZM142.296 18.4262H150.672L150.982 16.7028H142.606L142.296 18.4262ZM148.304 19.0995H126.774L126.47 20.823H148L148.304 19.0995ZM142.877 23.893H136.719L136.415 25.6165H142.575L142.877 23.893ZM123.953 25.6165H129.26L129.57 23.893H124.258L123.953 25.6165ZM144.707 26.2836H138.537L138.229 28.0071H144.402L144.707 26.2836ZM146.527 28.6866H140.366L140.065 30.41H146.232L146.527 28.6866ZM141.886 32.8098H148.056L148.354 31.0864H142.193L141.886 32.8098ZM122.682 32.8098H127.992L128.306 31.0864H122.99L122.682 32.8098ZM123.108 30.4131H128.424L128.728 28.6896H123.409L123.108 30.4131ZM123.829 26.3269L123.537 28.0132H128.853L129.154 26.2898H124.466L123.829 26.3269Z" fill="#DB1719"/>
    <path d="M120.017 1.51002L119.01 7.18995H124.227L124.279 6.88726C125.32 1.02511 120.017 1.51002 120.017 1.51002Z" fill="#104379"/>
</svg>
