<?xml version="1.0" encoding="UTF-8"?> <svg xmlns="http://www.w3.org/2000/svg" width="15" height="15" viewBox="0 0 203 203" fill="none"> <path d="M198.048 160.105L166.762 128.815C160.531 122.609 150.21 122.799 143.761 129.248L128 145.009C127.005 144.458 125.974 143.885 124.89 143.277C114.937 137.762 101.313 130.203 86.9759 115.856C72.5989 101.48 65.03 87.834 59.5 77.874C58.9129 76.818 58.3549 75.802 57.804 74.836L68.3829 64.271L73.5829 59.064C80.0429 52.604 80.2219 42.286 74.0019 36.063L42.715 4.769C36.499 -1.447 26.174 -1.258 19.7139 5.202L10.8959 14.07L11.1389 14.31C8.18295 18.082 5.70995 22.434 3.87395 27.126C2.17795 31.592 1.12195 35.855 0.638949 40.124C-3.49105 74.374 12.159 105.674 54.6329 148.152C113.344 206.859 160.66 202.425 162.7 202.207C167.149 201.677 171.407 200.614 175.738 198.932C180.39 197.114 184.739 194.648 188.507 191.699L188.7 191.867L197.633 183.12C204.079 176.661 204.265 166.343 198.048 160.105ZM190.683 176.164L186.746 180.094L185.178 181.601C182.709 183.988 178.435 187.341 172.194 189.782C168.651 191.146 165.158 192.022 161.604 192.445C161.157 192.488 116.654 196.285 61.575 141.21C14.743 94.38 7.23795 67.395 10.3839 41.259C10.7779 37.795 11.6469 34.309 13.0359 30.666C15.4979 24.389 18.8479 20.119 21.2169 17.646L26.6599 12.149C29.2829 9.519 33.374 9.318 35.7719 11.716L67.0579 43.002C69.4519 45.403 69.2629 49.494 66.6359 52.132L45.507 73.24L47.457 76.522C48.541 78.351 49.687 80.401 50.9109 82.628C56.7229 93.11 64.6749 107.458 80.0319 122.801C95.3489 138.126 109.676 146.071 120.126 151.868C122.384 153.117 124.446 154.266 126.296 155.368L129.585 157.318L150.7 136.196C153.334 133.573 157.439 133.379 159.837 135.77L191.109 167.049C193.5 169.446 193.31 173.537 190.683 176.164Z" fill="#27A2DB"></path> </svg> 