<?xml version="1.0" encoding="UTF-8"?> <svg xmlns="http://www.w3.org/2000/svg" width="15" height="15" viewBox="0 0 467 467" fill="none"> <path d="M233.004 0C104.224 0 0 104.212 0 233.004C0 361.785 104.212 466.008 233.004 466.008C361.786 466.008 466.008 361.796 466.008 233.004C466.008 104.222 361.796 0 233.004 0ZM233.004 436.008C121.067 436.008 30 344.941 30 233.004C30 121.067 121.067 30 233.004 30C344.941 30 436.008 121.067 436.008 233.004C436.008 344.941 344.941 436.008 233.004 436.008Z" fill="#27A2DB"></path> <path d="M233.004 63.028C224.72 63.028 218.004 69.744 218.004 78.028V227.535L158.013 298.86C152.68 305.2 153.497 314.662 159.837 319.995C166.177 325.328 175.641 324.509 180.972 318.171L244.484 242.66C246.757 239.957 248.005 236.537 248.005 233.005V78.028C248.004 69.743 241.289 63.028 233.004 63.028Z" fill="#27A2DB"></path> </svg> 